<svg xmlns="http://www.w3.org/2000/svg" width="1200" height="600" viewBox="0 0 1200 600" role="img" aria-labelledby="title desc" text-rendering="geometricPrecision">
  <title id="title">Clawdroid doctor output</title>
  <desc id="desc">A terminal style doctor report with checks for Waydroid, ADB, bridge, Google Play, ARM translation, and LLM vision.</desc>
  <defs>
    <linearGradient id="bg" x1="0" y1="0" x2="1" y2="1">
      <stop offset="0" stop-color="#0f1716"/>
      <stop offset="0.55" stop-color="#16231f"/>
      <stop offset="1" stop-color="#18222a"/>
    </linearGradient>
    <filter id="shadow" x="-20%" y="-20%" width="140%" height="140%">
      <feDropShadow dx="0" dy="16" stdDeviation="18" flood-color="#000000" flood-opacity="0.22"/>
    </filter>
    <style>
      .title{font:800 30px 'Noto Sans',Segoe UI,Arial,sans-serif;fill:#e8f5ef}
      .bar{fill:#1c272a}
      .term{fill:#101719;stroke:#314446;stroke-width:1.5}
      .m{font:600 15px 'Noto Sans Mono',Segoe UI,Arial,sans-serif}
      .green{fill:#6ee7a8}
      .amber{fill:#ffcf73}
      .muted{fill:#a9bbb5}
      .white{fill:#ecf4f0}
    </style>
  </defs>
  <rect width="1200" height="600" fill="url(#bg)"/>
  <circle cx="1040" cy="112" r="110" fill="#6ee7a8" opacity="0.06"/>
  <circle cx="190" cy="530" r="150" fill="#ffcf73" opacity="0.05"/>
  <g transform="translate(90 72)" filter="url(#shadow)">
    <rect class="term" width="1020" height="456" rx="8"/>
    <rect class="bar" width="1020" height="44" rx="8"/>
    <circle cx="26" cy="22" r="6" fill="#ff7468"/>
    <circle cx="48" cy="22" r="6" fill="#ffcf73"/>
    <circle cx="70" cy="22" r="6" fill="#6ee7a8"/>
    <text class="title" x="510" y="31" text-anchor="middle" font-size="17">./doctor.sh --user "$USER"</text>

    <text class="m white" x="42" y="88">Clawdroid doctor</text>
    <text class="m muted" x="42" y="122">host.project</text>
    <text class="m green" x="328" y="122">PASS</text>
    <text class="m white" x="404" y="122">/home/user/clawdroid</text>

    <text class="m muted" x="42" y="158">waydroid.container</text>
    <text class="m green" x="328" y="158">PASS</text>
    <text class="m white" x="404" y="158">container is running</text>

    <text class="m muted" x="42" y="194">adb.device</text>
    <text class="m green" x="328" y="194">PASS</text>
    <text class="m white" x="404" y="194">device is authorized</text>

    <text class="m muted" x="42" y="230">daemon.bridge</text>
    <text class="m green" x="328" y="230">PASS</text>
    <text class="m white" x="404" y="230">accessibility bridge reachable</text>

    <text class="m muted" x="42" y="266">android.pkg.play_store</text>
    <text class="m green" x="328" y="266">PASS</text>
    <text class="m white" x="404" y="266">Google Play Store installed</text>

    <text class="m muted" x="42" y="302">android.arm_translation</text>
    <text class="m green" x="328" y="302">PASS</text>
    <text class="m white" x="404" y="302">native bridge enabled</text>

    <text class="m muted" x="42" y="338">daemon.llm_config</text>
    <text class="m green" x="328" y="338">PASS</text>
    <text class="m white" x="404" y="338">OpenRouter UI-TARS configured</text>

    <text class="m muted" x="42" y="374">android.pkg.aurora</text>
    <text class="m amber" x="328" y="374">WARN</text>
    <text class="m white" x="404" y="374">optional store not installed</text>

    <text class="m white" x="42" y="430">summary:</text>
    <text class="m green" x="148" y="430">53 pass</text>
    <text class="m amber" x="248" y="430">1 warn</text>
    <text class="m green" x="342" y="430">0 fail</text>
  </g>
</svg>
